<svg width="101" height="35" viewBox="0 0 101 35" fill="none" xmlns="http://www.w3.org/2000/svg">
  <path fill-rule="evenodd" clip-rule="evenodd" d="M24.8 17.01C24.8 19.6505 24.24 21.9708 23.12 24.0512C22 26.1315 20.56 27.7318 18.8 28.7719C17.36 29.7321 15.76 30.2922 14.08 30.6122C12.4 30.8523 10.56 31.0123 8.64 31.0123H0V3.00781H8.64C10.56 3.00781 12.4 3.16784 14.16 3.40788C15.84 3.64791 17.44 4.28802 18.96 5.24817C20.8 6.44836 22.24 8.04862 23.28 10.0489C24.24 11.9692 24.8 14.3696 24.8 17.01ZM36.8 31.0123L43.2 21.0907V12.6093L36.8 3.00781V12.9294H28V3.00781H20.8V6.0483C22.08 7.08846 23.2 8.36867 24 9.96892C25.04 11.9692 25.6 14.2896 25.6 17.01C25.6 19.6505 25.04 21.9708 23.92 24.0512C23.04 25.5714 22 26.8516 20.8 27.8918V31.0123H28V19.2504H36.8V31.0123ZM50.8 21.0907L56.08 31.0123H64L54.32 16.53L64 3.00781H56.08L50.8 11.1691L45.52 3.00781H37.6L46.4 16.53L37.6 31.0123H45.52L50.8 21.0907ZM14.0793 9.25054C15.3593 9.97065 16.3193 11.0108 16.9593 12.291C17.5993 13.5712 17.9193 15.1715 17.9993 16.9318C17.9993 18.8521 17.6793 20.3723 17.1193 21.6525C16.4793 22.9327 15.5993 23.9729 14.4793 24.693C13.5193 25.3331 12.4793 25.6532 11.4393 25.7332C10.3193 25.8132 9.0393 25.8132 7.4393 25.8132H7.2793V8.29039H7.4393C8.8793 8.29039 10.0793 8.29039 11.1193 8.3704C12.1593 8.45041 13.1193 8.69045 14.0793 9.25054Z" fill="#2095F3"/>
  <path fill-rule="evenodd" clip-rule="evenodd" d="M68 5.80808L84.2853 0L101 5.70707L98.2982 27.2475L84.2853 35L70.4996 27.3485L68 5.80808Z" fill="#E23237"/>
  <path fill-rule="evenodd" clip-rule="evenodd" d="M101 5.70707L84.2852 0V35L98.2981 27.2475L101 5.70707V5.70707Z" fill="#B52E31"/>
  <path fill-rule="evenodd" clip-rule="evenodd" d="M84.3101 4.08984L74.1602 26.6656L77.9474 26.5898L79.9926 21.4888H89.0568L91.2786 26.6404L94.8892 26.7161L84.3101 4.08984V4.08984ZM84.3353 11.3373L87.7691 18.509H81.3307L84.3353 11.3373V11.3373Z" fill="white"/>
</svg>
